<svg xmlns="http://www.w3.org/2000/svg" viewBox="0 0 320 340" fill="none">
  <defs>
    <filter id="shadow" x="-20%" y="-20%" width="140%" height="140%">
      <feDropShadow dx="0" dy="8" stdDeviation="6" flood-color="#000000" flood-opacity="0.18"/>
    </filter>
  </defs>
  <g filter="url(#shadow)">
    <rect x="36" y="38" width="214" height="168" rx="24" fill="#F2EEE8" stroke="#111111" stroke-width="6"/>
    <path d="M36 80H250" stroke="#111111" stroke-width="6" stroke-linecap="round"/>
    <circle cx="62" cy="59" r="7" fill="#111111"/>
    <circle cx="86" cy="59" r="7" fill="#111111"/>
    <circle cx="110" cy="59" r="7" fill="#111111"/>

    <path d="M88 126L64 150L88 174" stroke="#111111" stroke-width="10" stroke-linecap="round" stroke-linejoin="round"/>
    <path d="M140 126L164 150L140 174" stroke="#111111" stroke-width="10" stroke-linecap="round" stroke-linejoin="round"/>
    <path d="M104 184C118 171 132 162 146 160C167 157 184 166 196 180" stroke="#111111" stroke-width="7" stroke-linecap="round"/>
    <path d="M73 190H212" stroke="#111111" stroke-width="6" stroke-linecap="round" opacity="0.55"/>

    <path d="M196 192L286 222L244 236L228 294L196 192Z" fill="#F2EEE8" stroke="#111111" stroke-width="6" stroke-linejoin="round"/>
    <path d="M228 294L242 261L269 287" stroke="#111111" stroke-width="6" stroke-linecap="round" stroke-linejoin="round"/>

    <path d="M82 242C102 229 127 223 153 223C180 223 206 229 228 244" stroke="#111111" stroke-width="6" stroke-linecap="round"/>
    <path d="M65 264H247" stroke="#111111" stroke-width="6" stroke-linecap="round"/>
  </g>
</svg>